<?xml version="1.0" encoding="utf-8"?>
<!-- Generator: Adobe Illustrator 25.4.1, SVG Export Plug-In . SVG Version: 6.00 Build 0)  -->
<svg version="1.1" id="Dhimahi" xmlns="http://www.w3.org/2000/svg" xmlns:xlink="http://www.w3.org/1999/xlink" x="0px" y="0px"
	 viewBox="0 0 1609.6 1389" style="enable-background:new 0 0 1609.6 1389;" xml:space="preserve">
<style type="text/css">
	.st0{fill-rule:evenodd;clip-rule:evenodd;fill:#000;}
	.st1{fill:#000;}
	.st2{fill-rule:evenodd;clip-rule:evenodd;fill:#000;}
</style>
<g>
	<path class="st0" d="M234.6,443.9c-16.3-79.7-53.7-136.5-103.1-149.7c-25.2-6.8-52.4-1.8-80.4,13c57.3-94.1,115.6-146.2,161.4-134
		c80.9,21.6,113.8,81.2,114.2,163C293.7,371.1,263,407.1,234.6,443.9z"/>
	<path class="st0" d="M64.5,734.2c-69.3-141.7-87-286.9-32.3-403.5C44,415.3,80.9,507.5,132.7,595
		C106.2,641.2,83.4,687.9,64.5,734.2z"/>
	<path class="st1" d="M1609.6,1201.8c-144.6,211-512.9,243.2-884.1,95.3c-45.9-16.4-141-62.6-162.8-76.1c0,0-42.6-24.7-53.7-31.3
		c-26.3,5.2-54.5,8.7-78.2,10.6c8.7-13.4,18.5-26.5,29.4-39.4l0.6-0.7c36.4-42.6,84.7-81.9,142.1-115.4c8.2,4.8,20.2,9.6,28.5,14.3
		c28.7-20.6,57.7-43.1,86.7-67.3c46.8-17.8,97.2-32.1,150.2-41.9c59.7-11.1,118.1-15.7,173.6-14.4c-44.6,33.9-93.3,66.9-145.5,97.8
		c-53,31.4-105.9,58.7-157.6,81.6c12.1,5.7,24.1,11.2,36.2,16.6c48.1-21.8,97.3-47.4,146.6-76.6c61.7-36.6,118.6-76,169.6-116.5
		c60.2,5.3,116,17.7,164.9,36.3c-70.7,69-160.2,137.5-262.7,198.3c-14,8.4-28.1,16.4-42.2,24.2
		C1200,1272.3,1438.2,1275.4,1609.6,1201.8z"/>
	<path class="st1" d="M402,1255.8c4.3-10.9,9.3-21.8,15.1-32.6c26.4,0,55.1-2.3,85.5-7.1l2.2,1.6c43.3,31.3,124.4,69.9,174.6,92.6
		c-83.3,24.2-159.3,35-220.9,31.3c-33.3-4.7-58.9-33.3-58.9-67.9C399.6,1267.5,400.4,1261.5,402,1255.8z"/>
	<path class="st0" d="M1609,1202.2C1442,1446,976.2,1452,552.4,1215c-30.9-17.3-63.9-35.1-92.6-53.9
		c49.5-59.5,117.3-102.5,143.7-115.4c10.1,6,24.1,11.8,34.4,17.6C989.2,1259.8,1366.2,1306.5,1609,1202.2z"/>
	<path class="st2" d="M288.8,1240.6c-24.6-36.7-39.3-80.8-39.3-128.3c0-23.8,3.6-46.8,10.3-68.4c38.2-138.9,115.6-286.5,229.3-422.3
		c36.5-28.5,76-55.4,118-80.2c199.9-117.8,411.6-159.2,570-125.7c36.5-77,60.4-149.4,70.2-212.8c49.5,0.6,96.2,8.1,138.8,22.8
		c11.1,70.2-6.7,162.6-49.1,265.6c21.8,19.2,40.2,41.6,54.6,67.1c15.8,28,26,58.2,31,90.1c-151.5-119.2-445.5-100.4-717.9,60
		C462.7,851.3,303.9,1060.3,288.8,1240.6z"/>
	<path class="st2" d="M319.7,1207.1c10.6-37.4,17.4-50.2,25.2-72.1c37.9-87.5,102.5-176.2,188.5-256.2
		c79.1-51.4,178.4-91.3,289.2-111.8c45.6-8.4,90.3-13.1,133.6-14.3c38.6-46.1,73.9-92.7,105.6-138.9c77.6-12.4,151.1-12.5,216.1-0.3
		c-29.8,54-65.2,109.5-105.7,165.3c22.5,6.7,43.7,14.5,63.7,23.4c52.8-59.8,90.2-118.4,108.4-170.9c31.2,11.2,59.5,25.9,84.3,44
		c2.5,56.4-28,126.3-84.1,200c33.5,34,55.5,74.2,63.1,119.3c4.2,25.3,3.6,50.9-1.3,76.2c-81.2-131.1-311.2-197.4-559.8-151.3
		c-245.5,45.5-435,186.3-472.2,336.5c-0.6,6-0.6,12.2-0.6,18.7c0,18.1,5.6,34.9,14.5,49.4c-21.1-9.2-40.5-23-57.8-38.8
		c-8.4-14.1-13.5-30.5-13.7-48C316.7,1225.4,318.4,1212.3,319.7,1207.1z"/>
	<path class="st2" d="M39.2,1045.8C31.7,831.1,149.8,560.9,369.8,337C696.1,4.9,1122.7-99.5,1322.5,103.9
		c28.1,28.6,50.3,61.9,66.7,98.8c-221.5-95-570.5,22.9-847.4,304.6c-167.5,170.5-275.5,371-314.4,550.3c-3.8,17.6-5.8,36-5.8,54.7
		c0,101.1,57.8,187.9,142.2,230.6c-8.2,0.7-16.7,1-25,1C174,1343.9,39.2,1210.5,39.2,1045.8z"/>
</g>
</svg>
